solid CUBOID/400/400/400@ffffffff
   facet normal 0.000000E+000 0.000000E+000 1.000000E+000
      outer loop
         vertex -2.000000E+002 2.000000E+002 4.000000E+002
         vertex -2.000000E+002 -2.000000E+002 4.000000E+002
         vertex 2.000000E+002 -2.000000E+002 4.000000E+002
      endloop
   endfacet
   facet normal 0.000000E+000 0.000000E+000 1.000000E+000
      outer loop
         vertex 2.000000E+002 -2.000000E+002 4.000000E+002
         vertex 2.000000E+002 2.000000E+002 4.000000E+002
         vertex -2.000000E+002 2.000000E+002 4.000000E+002
      endloop
   endfacet
   facet normal 0.000000E+000 -1.000000E+000 0.000000E+000
      outer loop
         vertex -2.000000E+002 -2.000000E+002 4.000000E+002
         vertex -2.000000E+002 -2.000000E+002 0.000000E+000
         vertex 2.000000E+002 -2.000000E+002 0.000000E+000
      endloop
   endfacet
   facet normal 0.000000E+000 -1.000000E+000 0.000000E+000
      outer loop
         vertex 2.000000E+002 -2.000000E+002 0.000000E+000
         vertex 2.000000E+002 -2.000000E+002 4.000000E+002
         vertex -2.000000E+002 -2.000000E+002 4.000000E+002
      endloop
   endfacet
   facet normal 1.000000E+000 0.000000E+000 0.000000E+000
      outer loop
         vertex 2.000000E+002 -2.000000E+002 4.000000E+002
         vertex 2.000000E+002 -2.000000E+002 0.000000E+000
         vertex 2.000000E+002 2.000000E+002 0.000000E+000
      endloop
   endfacet
   facet normal 1.000000E+000 0.000000E+000 0.000000E+000
      outer loop
         vertex 2.000000E+002 2.000000E+002 0.000000E+000
         vertex 2.000000E+002 2.000000E+002 4.000000E+002
         vertex 2.000000E+002 -2.000000E+002 4.000000E+002
      endloop
   endfacet
   facet normal 0.000000E+000 1.000000E+000 0.000000E+000
      outer loop
         vertex 2.000000E+002 2.000000E+002 4.000000E+002
         vertex 2.000000E+002 2.000000E+002 0.000000E+000
         vertex -2.000000E+002 2.000000E+002 0.000000E+000
      endloop
   endfacet
   facet normal 0.000000E+000 1.000000E+000 0.000000E+000
      outer loop
         vertex -2.000000E+002 2.000000E+002 0.000000E+000
         vertex -2.000000E+002 2.000000E+002 4.000000E+002
         vertex 2.000000E+002 2.000000E+002 4.000000E+002
      endloop
   endfacet
   facet normal -1.000000E+000 0.000000E+000 0.000000E+000
      outer loop
         vertex -2.000000E+002 2.000000E+002 4.000000E+002
         vertex -2.000000E+002 2.000000E+002 0.000000E+000
         vertex -2.000000E+002 -2.000000E+002 0.000000E+000
      endloop
   endfacet
   facet normal -1.000000E+000 0.000000E+000 0.000000E+000
      outer loop
         vertex -2.000000E+002 -2.000000E+002 0.000000E+000
         vertex -2.000000E+002 -2.000000E+002 4.000000E+002
         vertex -2.000000E+002 2.000000E+002 4.000000E+002
      endloop
   endfacet
   facet normal 0.000000E+000 0.000000E+000 -1.000000E+000
      outer loop
         vertex 2.000000E+002 -2.000000E+002 0.000000E+000
         vertex -2.000000E+002 -2.000000E+002 0.000000E+000
         vertex -2.000000E+002 2.000000E+002 0.000000E+000
      endloop
   endfacet
   facet normal 0.000000E+000 0.000000E+000 -1.000000E+000
      outer loop
         vertex -2.000000E+002 2.000000E+002 0.000000E+000
         vertex 2.000000E+002 2.000000E+002 0.000000E+000
         vertex 2.000000E+002 -2.000000E+002 0.000000E+000
      endloop
   endfacet
endsolid
