solid CUBOID/20/150/600@640000ff@Transparent
   facet normal 0.000000E+000 0.000000E+000 1.000000E+000
      outer loop
         vertex -1.000000E+001 7.500000E+001 6.000000E+002
         vertex -1.000000E+001 -7.500000E+001 6.000000E+002
         vertex 1.000000E+001 -7.500000E+001 6.000000E+002
      endloop
   endfacet
   facet normal 0.000000E+000 0.000000E+000 1.000000E+000
      outer loop
         vertex 1.000000E+001 -7.500000E+001 6.000000E+002
         vertex 1.000000E+001 7.500000E+001 6.000000E+002
         vertex -1.000000E+001 7.500000E+001 6.000000E+002
      endloop
   endfacet
   facet normal 0.000000E+000 -1.000000E+000 0.000000E+000
      outer loop
         vertex -1.000000E+001 -7.500000E+001 6.000000E+002
         vertex -1.000000E+001 -7.500000E+001 0.000000E+000
         vertex 1.000000E+001 -7.500000E+001 0.000000E+000
      endloop
   endfacet
   facet normal 0.000000E+000 -1.000000E+000 0.000000E+000
      outer loop
         vertex 1.000000E+001 -7.500000E+001 0.000000E+000
         vertex 1.000000E+001 -7.500000E+001 6.000000E+002
         vertex -1.000000E+001 -7.500000E+001 6.000000E+002
      endloop
   endfacet
   facet normal 1.000000E+000 0.000000E+000 0.000000E+000
      outer loop
         vertex 1.000000E+001 -7.500000E+001 6.000000E+002
         vertex 1.000000E+001 -7.500000E+001 0.000000E+000
         vertex 1.000000E+001 7.500000E+001 0.000000E+000
      endloop
   endfacet
   facet normal 1.000000E+000 0.000000E+000 0.000000E+000
      outer loop
         vertex 1.000000E+001 7.500000E+001 0.000000E+000
         vertex 1.000000E+001 7.500000E+001 6.000000E+002
         vertex 1.000000E+001 -7.500000E+001 6.000000E+002
      endloop
   endfacet
   facet normal 0.000000E+000 1.000000E+000 0.000000E+000
      outer loop
         vertex 1.000000E+001 7.500000E+001 6.000000E+002
         vertex 1.000000E+001 7.500000E+001 0.000000E+000
         vertex -1.000000E+001 7.500000E+001 0.000000E+000
      endloop
   endfacet
   facet normal 0.000000E+000 1.000000E+000 0.000000E+000
      outer loop
         vertex -1.000000E+001 7.500000E+001 0.000000E+000
         vertex -1.000000E+001 7.500000E+001 6.000000E+002
         vertex 1.000000E+001 7.500000E+001 6.000000E+002
      endloop
   endfacet
   facet normal -1.000000E+000 0.000000E+000 0.000000E+000
      outer loop
         vertex -1.000000E+001 7.500000E+001 6.000000E+002
         vertex -1.000000E+001 7.500000E+001 0.000000E+000
         vertex -1.000000E+001 -7.500000E+001 0.000000E+000
      endloop
   endfacet
   facet normal -1.000000E+000 0.000000E+000 0.000000E+000
      outer loop
         vertex -1.000000E+001 -7.500000E+001 0.000000E+000
         vertex -1.000000E+001 -7.500000E+001 6.000000E+002
         vertex -1.000000E+001 7.500000E+001 6.000000E+002
      endloop
   endfacet
   facet normal 0.000000E+000 0.000000E+000 -1.000000E+000
      outer loop
         vertex 1.000000E+001 -7.500000E+001 0.000000E+000
         vertex -1.000000E+001 -7.500000E+001 0.000000E+000
         vertex -1.000000E+001 7.500000E+001 0.000000E+000
      endloop
   endfacet
   facet normal 0.000000E+000 0.000000E+000 -1.000000E+000
      outer loop
         vertex -1.000000E+001 7.500000E+001 0.000000E+000
         vertex 1.000000E+001 7.500000E+001 0.000000E+000
         vertex 1.000000E+001 -7.500000E+001 0.000000E+000
      endloop
   endfacet
endsolid
