solid CUBOID/100/100/250@640000ff@Transparent
   facet normal 0.000000E+000 0.000000E+000 1.000000E+000
      outer loop
         vertex -5.000000E+001 5.000000E+001 2.500000E+002
         vertex -5.000000E+001 -5.000000E+001 2.500000E+002
         vertex 5.000000E+001 -5.000000E+001 2.500000E+002
      endloop
   endfacet
   facet normal 0.000000E+000 0.000000E+000 1.000000E+000
      outer loop
         vertex 5.000000E+001 -5.000000E+001 2.500000E+002
         vertex 5.000000E+001 5.000000E+001 2.500000E+002
         vertex -5.000000E+001 5.000000E+001 2.500000E+002
      endloop
   endfacet
   facet normal 0.000000E+000 -1.000000E+000 0.000000E+000
      outer loop
         vertex -5.000000E+001 -5.000000E+001 2.500000E+002
         vertex -5.000000E+001 -5.000000E+001 0.000000E+000
         vertex 5.000000E+001 -5.000000E+001 0.000000E+000
      endloop
   endfacet
   facet normal 0.000000E+000 -1.000000E+000 0.000000E+000
      outer loop
         vertex 5.000000E+001 -5.000000E+001 0.000000E+000
         vertex 5.000000E+001 -5.000000E+001 2.500000E+002
         vertex -5.000000E+001 -5.000000E+001 2.500000E+002
      endloop
   endfacet
   facet normal 1.000000E+000 0.000000E+000 0.000000E+000
      outer loop
         vertex 5.000000E+001 -5.000000E+001 2.500000E+002
         vertex 5.000000E+001 -5.000000E+001 0.000000E+000
         vertex 5.000000E+001 5.000000E+001 0.000000E+000
      endloop
   endfacet
   facet normal 1.000000E+000 0.000000E+000 0.000000E+000
      outer loop
         vertex 5.000000E+001 5.000000E+001 0.000000E+000
         vertex 5.000000E+001 5.000000E+001 2.500000E+002
         vertex 5.000000E+001 -5.000000E+001 2.500000E+002
      endloop
   endfacet
   facet normal 0.000000E+000 1.000000E+000 0.000000E+000
      outer loop
         vertex 5.000000E+001 5.000000E+001 2.500000E+002
         vertex 5.000000E+001 5.000000E+001 0.000000E+000
         vertex -5.000000E+001 5.000000E+001 0.000000E+000
      endloop
   endfacet
   facet normal 0.000000E+000 1.000000E+000 0.000000E+000
      outer loop
         vertex -5.000000E+001 5.000000E+001 0.000000E+000
         vertex -5.000000E+001 5.000000E+001 2.500000E+002
         vertex 5.000000E+001 5.000000E+001 2.500000E+002
      endloop
   endfacet
   facet normal -1.000000E+000 0.000000E+000 0.000000E+000
      outer loop
         vertex -5.000000E+001 5.000000E+001 2.500000E+002
         vertex -5.000000E+001 5.000000E+001 0.000000E+000
         vertex -5.000000E+001 -5.000000E+001 0.000000E+000
      endloop
   endfacet
   facet normal -1.000000E+000 0.000000E+000 0.000000E+000
      outer loop
         vertex -5.000000E+001 -5.000000E+001 0.000000E+000
         vertex -5.000000E+001 -5.000000E+001 2.500000E+002
         vertex -5.000000E+001 5.000000E+001 2.500000E+002
      endloop
   endfacet
   facet normal 0.000000E+000 0.000000E+000 -1.000000E+000
      outer loop
         vertex 5.000000E+001 -5.000000E+001 0.000000E+000
         vertex -5.000000E+001 -5.000000E+001 0.000000E+000
         vertex -5.000000E+001 5.000000E+001 0.000000E+000
      endloop
   endfacet
   facet normal 0.000000E+000 0.000000E+000 -1.000000E+000
      outer loop
         vertex -5.000000E+001 5.000000E+001 0.000000E+000
         vertex 5.000000E+001 5.000000E+001 0.000000E+000
         vertex 5.000000E+001 -5.000000E+001 0.000000E+000
      endloop
   endfacet
endsolid
