solid CYLINDER/38/40@ff00ff00
   facet normal 0.000000E+000 0.000000E+000 1.000000E+000
      outer loop
         vertex 3.800000E+001 0.000000E+000 4.000000E+001
         vertex 3.670518E+001 9.835124E+000 4.000000E+001
         vertex 0.000000E+000 0.000000E+000 4.000000E+001
      endloop
   endfacet
   facet normal 0.000000E+000 0.000000E+000 1.000000E+000
      outer loop
         vertex 3.670518E+001 9.835124E+000 4.000000E+001
         vertex 3.290897E+001 1.900000E+001 4.000000E+001
         vertex 0.000000E+000 0.000000E+000 4.000000E+001
      endloop
   endfacet
   facet normal 0.000000E+000 0.000000E+000 1.000000E+000
      outer loop
         vertex 3.290897E+001 1.900000E+001 4.000000E+001
         vertex 2.687006E+001 2.687006E+001 4.000000E+001
         vertex 0.000000E+000 0.000000E+000 4.000000E+001
      endloop
   endfacet
   facet normal 0.000000E+000 0.000000E+000 1.000000E+000
      outer loop
         vertex 2.687006E+001 2.687006E+001 4.000000E+001
         vertex 1.900000E+001 3.290897E+001 4.000000E+001
         vertex 0.000000E+000 0.000000E+000 4.000000E+001
      endloop
   endfacet
   facet normal 0.000000E+000 0.000000E+000 1.000000E+000
      outer loop
         vertex 1.900000E+001 3.290897E+001 4.000000E+001
         vertex 9.835124E+000 3.670518E+001 4.000000E+001
         vertex 0.000000E+000 0.000000E+000 4.000000E+001
      endloop
   endfacet
   facet normal 0.000000E+000 0.000000E+000 1.000000E+000
      outer loop
         vertex 9.835124E+000 3.670518E+001 4.000000E+001
         vertex 2.326752E-015 3.800000E+001 4.000000E+001
         vertex 0.000000E+000 0.000000E+000 4.000000E+001
      endloop
   endfacet
   facet normal 0.000000E+000 0.000000E+000 1.000000E+000
      outer loop
         vertex 2.326752E-015 3.800000E+001 4.000000E+001
         vertex -9.835124E+000 3.670518E+001 4.000000E+001
         vertex 0.000000E+000 0.000000E+000 4.000000E+001
      endloop
   endfacet
   facet normal 0.000000E+000 0.000000E+000 1.000000E+000
      outer loop
         vertex -9.835124E+000 3.670518E+001 4.000000E+001
         vertex -1.900000E+001 3.290897E+001 4.000000E+001
         vertex 0.000000E+000 0.000000E+000 4.000000E+001
      endloop
   endfacet
   facet normal 0.000000E+000 0.000000E+000 1.000000E+000
      outer loop
         vertex -1.900000E+001 3.290897E+001 4.000000E+001
         vertex -2.687006E+001 2.687006E+001 4.000000E+001
         vertex 0.000000E+000 0.000000E+000 4.000000E+001
      endloop
   endfacet
   facet normal 0.000000E+000 0.000000E+000 1.000000E+000
      outer loop
         vertex -2.687006E+001 2.687006E+001 4.000000E+001
         vertex -3.290897E+001 1.900000E+001 4.000000E+001
         vertex 0.000000E+000 0.000000E+000 4.000000E+001
      endloop
   endfacet
   facet normal 0.000000E+000 0.000000E+000 1.000000E+000
      outer loop
         vertex -3.290897E+001 1.900000E+001 4.000000E+001
         vertex -3.670518E+001 9.835124E+000 4.000000E+001
         vertex 0.000000E+000 0.000000E+000 4.000000E+001
      endloop
   endfacet
   facet normal 0.000000E+000 0.000000E+000 1.000000E+000
      outer loop
         vertex -3.670518E+001 9.835124E+000 4.000000E+001
         vertex -3.800000E+001 4.653504E-015 4.000000E+001
         vertex 0.000000E+000 0.000000E+000 4.000000E+001
      endloop
   endfacet
   facet normal 0.000000E+000 0.000000E+000 1.000000E+000
      outer loop
         vertex -3.800000E+001 4.653504E-015 4.000000E+001
         vertex -3.670518E+001 -9.835124E+000 4.000000E+001
         vertex 0.000000E+000 0.000000E+000 4.000000E+001
      endloop
   endfacet
   facet normal 0.000000E+000 0.000000E+000 1.000000E+000
      outer loop
         vertex -3.670518E+001 -9.835124E+000 4.000000E+001
         vertex -3.290897E+001 -1.900000E+001 4.000000E+001
         vertex 0.000000E+000 0.000000E+000 4.000000E+001
      endloop
   endfacet
   facet normal 0.000000E+000 0.000000E+000 1.000000E+000
      outer loop
         vertex -3.290897E+001 -1.900000E+001 4.000000E+001
         vertex -2.687006E+001 -2.687006E+001 4.000000E+001
         vertex 0.000000E+000 0.000000E+000 4.000000E+001
      endloop
   endfacet
   facet normal 0.000000E+000 0.000000E+000 1.000000E+000
      outer loop
         vertex -2.687006E+001 -2.687006E+001 4.000000E+001
         vertex -1.900000E+001 -3.290897E+001 4.000000E+001
         vertex 0.000000E+000 0.000000E+000 4.000000E+001
      endloop
   endfacet
   facet normal 0.000000E+000 0.000000E+000 1.000000E+000
      outer loop
         vertex -1.900000E+001 -3.290897E+001 4.000000E+001
         vertex -9.835124E+000 -3.670518E+001 4.000000E+001
         vertex 0.000000E+000 0.000000E+000 4.000000E+001
      endloop
   endfacet
   facet normal 0.000000E+000 0.000000E+000 1.000000E+000
      outer loop
         vertex -9.835124E+000 -3.670518E+001 4.000000E+001
         vertex -6.980256E-015 -3.800000E+001 4.000000E+001
         vertex 0.000000E+000 0.000000E+000 4.000000E+001
      endloop
   endfacet
   facet normal 0.000000E+000 0.000000E+000 1.000000E+000
      outer loop
         vertex -6.980256E-015 -3.800000E+001 4.000000E+001
         vertex 9.835124E+000 -3.670518E+001 4.000000E+001
         vertex 0.000000E+000 0.000000E+000 4.000000E+001
      endloop
   endfacet
   facet normal 0.000000E+000 0.000000E+000 1.000000E+000
      outer loop
         vertex 9.835124E+000 -3.670518E+001 4.000000E+001
         vertex 1.900000E+001 -3.290897E+001 4.000000E+001
         vertex 0.000000E+000 0.000000E+000 4.000000E+001
      endloop
   endfacet
   facet normal 0.000000E+000 0.000000E+000 1.000000E+000
      outer loop
         vertex 1.900000E+001 -3.290897E+001 4.000000E+001
         vertex 2.687006E+001 -2.687006E+001 4.000000E+001
         vertex 0.000000E+000 0.000000E+000 4.000000E+001
      endloop
   endfacet
   facet normal 0.000000E+000 0.000000E+000 1.000000E+000
      outer loop
         vertex 2.687006E+001 -2.687006E+001 4.000000E+001
         vertex 3.290897E+001 -1.900000E+001 4.000000E+001
         vertex 0.000000E+000 0.000000E+000 4.000000E+001
      endloop
   endfacet
   facet normal 0.000000E+000 0.000000E+000 1.000000E+000
      outer loop
         vertex 3.290897E+001 -1.900000E+001 4.000000E+001
         vertex 3.670518E+001 -9.835124E+000 4.000000E+001
         vertex 0.000000E+000 0.000000E+000 4.000000E+001
      endloop
   endfacet
   facet normal 0.000000E+000 0.000000E+000 1.000000E+000
      outer loop
         vertex 3.670518E+001 -9.835124E+000 4.000000E+001
         vertex 3.800000E+001 -9.307008E-015 4.000000E+001
         vertex 0.000000E+000 0.000000E+000 4.000000E+001
      endloop
   endfacet
   facet normal 0.000000E+000 0.000000E+000 -1.000000E+000
      outer loop
         vertex 3.670518E+001 9.835124E+000 0.000000E+000
         vertex 3.800000E+001 0.000000E+000 0.000000E+000
         vertex 0.000000E+000 0.000000E+000 0.000000E+000
      endloop
   endfacet
   facet normal 0.000000E+000 0.000000E+000 -1.000000E+000
      outer loop
         vertex 3.290897E+001 1.900000E+001 0.000000E+000
         vertex 3.670518E+001 9.835124E+000 0.000000E+000
         vertex 0.000000E+000 0.000000E+000 0.000000E+000
      endloop
   endfacet
   facet normal 0.000000E+000 0.000000E+000 -1.000000E+000
      outer loop
         vertex 2.687006E+001 2.687006E+001 0.000000E+000
         vertex 3.290897E+001 1.900000E+001 0.000000E+000
         vertex 0.000000E+000 0.000000E+000 0.000000E+000
      endloop
   endfacet
   facet normal 0.000000E+000 0.000000E+000 -1.000000E+000
      outer loop
         vertex 1.900000E+001 3.290897E+001 0.000000E+000
         vertex 2.687006E+001 2.687006E+001 0.000000E+000
         vertex 0.000000E+000 0.000000E+000 0.000000E+000
      endloop
   endfacet
   facet normal 0.000000E+000 0.000000E+000 -1.000000E+000
      outer loop
         vertex 9.835124E+000 3.670518E+001 0.000000E+000
         vertex 1.900000E+001 3.290897E+001 0.000000E+000
         vertex 0.000000E+000 0.000000E+000 0.000000E+000
      endloop
   endfacet
   facet normal 0.000000E+000 0.000000E+000 -1.000000E+000
      outer loop
         vertex 2.326752E-015 3.800000E+001 0.000000E+000
         vertex 9.835124E+000 3.670518E+001 0.000000E+000
         vertex 0.000000E+000 0.000000E+000 0.000000E+000
      endloop
   endfacet
   facet normal 0.000000E+000 0.000000E+000 -1.000000E+000
      outer loop
         vertex -9.835124E+000 3.670518E+001 0.000000E+000
         vertex 2.326752E-015 3.800000E+001 0.000000E+000
         vertex 0.000000E+000 0.000000E+000 0.000000E+000
      endloop
   endfacet
   facet normal 0.000000E+000 0.000000E+000 -1.000000E+000
      outer loop
         vertex -1.900000E+001 3.290897E+001 0.000000E+000
         vertex -9.835124E+000 3.670518E+001 0.000000E+000
         vertex 0.000000E+000 0.000000E+000 0.000000E+000
      endloop
   endfacet
   facet normal 0.000000E+000 0.000000E+000 -1.000000E+000
      outer loop
         vertex -2.687006E+001 2.687006E+001 0.000000E+000
         vertex -1.900000E+001 3.290897E+001 0.000000E+000
         vertex 0.000000E+000 0.000000E+000 0.000000E+000
      endloop
   endfacet
   facet normal 0.000000E+000 0.000000E+000 -1.000000E+000
      outer loop
         vertex -3.290897E+001 1.900000E+001 0.000000E+000
         vertex -2.687006E+001 2.687006E+001 0.000000E+000
         vertex 0.000000E+000 0.000000E+000 0.000000E+000
      endloop
   endfacet
   facet normal 0.000000E+000 0.000000E+000 -1.000000E+000
      outer loop
         vertex -3.670518E+001 9.835124E+000 0.000000E+000
         vertex -3.290897E+001 1.900000E+001 0.000000E+000
         vertex 0.000000E+000 0.000000E+000 0.000000E+000
      endloop
   endfacet
   facet normal 0.000000E+000 0.000000E+000 -1.000000E+000
      outer loop
         vertex -3.800000E+001 4.653504E-015 0.000000E+000
         vertex -3.670518E+001 9.835124E+000 0.000000E+000
         vertex 0.000000E+000 0.000000E+000 0.000000E+000
      endloop
   endfacet
   facet normal 0.000000E+000 0.000000E+000 -1.000000E+000
      outer loop
         vertex -3.670518E+001 -9.835124E+000 0.000000E+000
         vertex -3.800000E+001 4.653504E-015 0.000000E+000
         vertex 0.000000E+000 0.000000E+000 0.000000E+000
      endloop
   endfacet
   facet normal 0.000000E+000 0.000000E+000 -1.000000E+000
      outer loop
         vertex -3.290897E+001 -1.900000E+001 0.000000E+000
         vertex -3.670518E+001 -9.835124E+000 0.000000E+000
         vertex 0.000000E+000 0.000000E+000 0.000000E+000
      endloop
   endfacet
   facet normal 0.000000E+000 0.000000E+000 -1.000000E+000
      outer loop
         vertex -2.687006E+001 -2.687006E+001 0.000000E+000
         vertex -3.290897E+001 -1.900000E+001 0.000000E+000
         vertex 0.000000E+000 0.000000E+000 0.000000E+000
      endloop
   endfacet
   facet normal 0.000000E+000 0.000000E+000 -1.000000E+000
      outer loop
         vertex -1.900000E+001 -3.290897E+001 0.000000E+000
         vertex -2.687006E+001 -2.687006E+001 0.000000E+000
         vertex 0.000000E+000 0.000000E+000 0.000000E+000
      endloop
   endfacet
   facet normal 0.000000E+000 0.000000E+000 -1.000000E+000
      outer loop
         vertex -9.835124E+000 -3.670518E+001 0.000000E+000
         vertex -1.900000E+001 -3.290897E+001 0.000000E+000
         vertex 0.000000E+000 0.000000E+000 0.000000E+000
      endloop
   endfacet
   facet normal 0.000000E+000 0.000000E+000 -1.000000E+000
      outer loop
         vertex -6.980256E-015 -3.800000E+001 0.000000E+000
         vertex -9.835124E+000 -3.670518E+001 0.000000E+000
         vertex 0.000000E+000 0.000000E+000 0.000000E+000
      endloop
   endfacet
   facet normal 0.000000E+000 0.000000E+000 -1.000000E+000
      outer loop
         vertex 9.835124E+000 -3.670518E+001 0.000000E+000
         vertex -6.980256E-015 -3.800000E+001 0.000000E+000
         vertex 0.000000E+000 0.000000E+000 0.000000E+000
      endloop
   endfacet
   facet normal 0.000000E+000 0.000000E+000 -1.000000E+000
      outer loop
         vertex 1.900000E+001 -3.290897E+001 0.000000E+000
         vertex 9.835124E+000 -3.670518E+001 0.000000E+000
         vertex 0.000000E+000 0.000000E+000 0.000000E+000
      endloop
   endfacet
   facet normal 0.000000E+000 0.000000E+000 -1.000000E+000
      outer loop
         vertex 2.687006E+001 -2.687006E+001 0.000000E+000
         vertex 1.900000E+001 -3.290897E+001 0.000000E+000
         vertex 0.000000E+000 0.000000E+000 0.000000E+000
      endloop
   endfacet
   facet normal 0.000000E+000 0.000000E+000 -1.000000E+000
      outer loop
         vertex 3.290897E+001 -1.900000E+001 0.000000E+000
         vertex 2.687006E+001 -2.687006E+001 0.000000E+000
         vertex 0.000000E+000 0.000000E+000 0.000000E+000
      endloop
   endfacet
   facet normal 0.000000E+000 0.000000E+000 -1.000000E+000
      outer loop
         vertex 3.670518E+001 -9.835124E+000 0.000000E+000
         vertex 3.290897E+001 -1.900000E+001 0.000000E+000
         vertex 0.000000E+000 0.000000E+000 0.000000E+000
      endloop
   endfacet
   facet normal 0.000000E+000 0.000000E+000 -1.000000E+000
      outer loop
         vertex 3.800000E+001 -9.307008E-015 0.000000E+000
         vertex 3.670518E+001 -9.835124E+000 0.000000E+000
         vertex 0.000000E+000 0.000000E+000 0.000000E+000
      endloop
   endfacet
   facet normal 9.914449E-001 1.305262E-001 0.000000E+000
      outer loop
         vertex 3.670518E+001 9.835124E+000 4.000000E+001
         vertex 3.800000E+001 0.000000E+000 4.000000E+001
         vertex 3.800000E+001 0.000000E+000 0.000000E+000
      endloop
   endfacet
   facet normal 9.914449E-001 1.305262E-001 0.000000E+000
      outer loop
         vertex 3.800000E+001 0.000000E+000 0.000000E+000
         vertex 3.670518E+001 9.835124E+000 0.000000E+000
         vertex 3.670518E+001 9.835124E+000 4.000000E+001
      endloop
   endfacet
   facet normal 9.238795E-001 3.826834E-001 0.000000E+000
      outer loop
         vertex 3.290897E+001 1.900000E+001 4.000000E+001
         vertex 3.670518E+001 9.835124E+000 4.000000E+001
         vertex 3.670518E+001 9.835124E+000 0.000000E+000
      endloop
   endfacet
   facet normal 9.238795E-001 3.826834E-001 0.000000E+000
      outer loop
         vertex 3.670518E+001 9.835124E+000 0.000000E+000
         vertex 3.290897E+001 1.900000E+001 0.000000E+000
         vertex 3.290897E+001 1.900000E+001 4.000000E+001
      endloop
   endfacet
   facet normal 7.933533E-001 6.087614E-001 0.000000E+000
      outer loop
         vertex 2.687006E+001 2.687006E+001 4.000000E+001
         vertex 3.290897E+001 1.900000E+001 4.000000E+001
         vertex 3.290897E+001 1.900000E+001 0.000000E+000
      endloop
   endfacet
   facet normal 7.933533E-001 6.087614E-001 0.000000E+000
      outer loop
         vertex 3.290897E+001 1.900000E+001 0.000000E+000
         vertex 2.687006E+001 2.687006E+001 0.000000E+000
         vertex 2.687006E+001 2.687006E+001 4.000000E+001
      endloop
   endfacet
   facet normal 6.087614E-001 7.933533E-001 0.000000E+000
      outer loop
         vertex 1.900000E+001 3.290897E+001 4.000000E+001
         vertex 2.687006E+001 2.687006E+001 4.000000E+001
         vertex 2.687006E+001 2.687006E+001 0.000000E+000
      endloop
   endfacet
   facet normal 6.087614E-001 7.933533E-001 0.000000E+000
      outer loop
         vertex 2.687006E+001 2.687006E+001 0.000000E+000
         vertex 1.900000E+001 3.290897E+001 0.000000E+000
         vertex 1.900000E+001 3.290897E+001 4.000000E+001
      endloop
   endfacet
   facet normal 3.826834E-001 9.238795E-001 0.000000E+000
      outer loop
         vertex 9.835124E+000 3.670518E+001 4.000000E+001
         vertex 1.900000E+001 3.290897E+001 4.000000E+001
         vertex 1.900000E+001 3.290897E+001 0.000000E+000
      endloop
   endfacet
   facet normal 3.826834E-001 9.238795E-001 0.000000E+000
      outer loop
         vertex 1.900000E+001 3.290897E+001 0.000000E+000
         vertex 9.835124E+000 3.670518E+001 0.000000E+000
         vertex 9.835124E+000 3.670518E+001 4.000000E+001
      endloop
   endfacet
   facet normal 1.305262E-001 9.914449E-001 0.000000E+000
      outer loop
         vertex 2.326752E-015 3.800000E+001 4.000000E+001
         vertex 9.835124E+000 3.670518E+001 4.000000E+001
         vertex 9.835124E+000 3.670518E+001 0.000000E+000
      endloop
   endfacet
   facet normal 1.305262E-001 9.914449E-001 0.000000E+000
      outer loop
         vertex 9.835124E+000 3.670518E+001 0.000000E+000
         vertex 2.326752E-015 3.800000E+001 0.000000E+000
         vertex 2.326752E-015 3.800000E+001 4.000000E+001
      endloop
   endfacet
   facet normal -1.305262E-001 9.914449E-001 0.000000E+000
      outer loop
         vertex -9.835124E+000 3.670518E+001 4.000000E+001
         vertex 2.326752E-015 3.800000E+001 4.000000E+001
         vertex 2.326752E-015 3.800000E+001 0.000000E+000
      endloop
   endfacet
   facet normal -1.305262E-001 9.914449E-001 0.000000E+000
      outer loop
         vertex 2.326752E-015 3.800000E+001 0.000000E+000
         vertex -9.835124E+000 3.670518E+001 0.000000E+000
         vertex -9.835124E+000 3.670518E+001 4.000000E+001
      endloop
   endfacet
   facet normal -3.826834E-001 9.238795E-001 0.000000E+000
      outer loop
         vertex -1.900000E+001 3.290897E+001 4.000000E+001
         vertex -9.835124E+000 3.670518E+001 4.000000E+001
         vertex -9.835124E+000 3.670518E+001 0.000000E+000
      endloop
   endfacet
   facet normal -3.826834E-001 9.238795E-001 0.000000E+000
      outer loop
         vertex -9.835124E+000 3.670518E+001 0.000000E+000
         vertex -1.900000E+001 3.290897E+001 0.000000E+000
         vertex -1.900000E+001 3.290897E+001 4.000000E+001
      endloop
   endfacet
   facet normal -6.087614E-001 7.933533E-001 0.000000E+000
      outer loop
         vertex -2.687006E+001 2.687006E+001 4.000000E+001
         vertex -1.900000E+001 3.290897E+001 4.000000E+001
         vertex -1.900000E+001 3.290897E+001 0.000000E+000
      endloop
   endfacet
   facet normal -6.087614E-001 7.933533E-001 0.000000E+000
      outer loop
         vertex -1.900000E+001 3.290897E+001 0.000000E+000
         vertex -2.687006E+001 2.687006E+001 0.000000E+000
         vertex -2.687006E+001 2.687006E+001 4.000000E+001
      endloop
   endfacet
   facet normal -7.933533E-001 6.087614E-001 0.000000E+000
      outer loop
         vertex -3.290897E+001 1.900000E+001 4.000000E+001
         vertex -2.687006E+001 2.687006E+001 4.000000E+001
         vertex -2.687006E+001 2.687006E+001 0.000000E+000
      endloop
   endfacet
   facet normal -7.933533E-001 6.087614E-001 0.000000E+000
      outer loop
         vertex -2.687006E+001 2.687006E+001 0.000000E+000
         vertex -3.290897E+001 1.900000E+001 0.000000E+000
         vertex -3.290897E+001 1.900000E+001 4.000000E+001
      endloop
   endfacet
   facet normal -9.238795E-001 3.826834E-001 0.000000E+000
      outer loop
         vertex -3.670518E+001 9.835124E+000 4.000000E+001
         vertex -3.290897E+001 1.900000E+001 4.000000E+001
         vertex -3.290897E+001 1.900000E+001 0.000000E+000
      endloop
   endfacet
   facet normal -9.238795E-001 3.826834E-001 0.000000E+000
      outer loop
         vertex -3.290897E+001 1.900000E+001 0.000000E+000
         vertex -3.670518E+001 9.835124E+000 0.000000E+000
         vertex -3.670518E+001 9.835124E+000 4.000000E+001
      endloop
   endfacet
   facet normal -9.914449E-001 1.305262E-001 0.000000E+000
      outer loop
         vertex -3.800000E+001 4.653504E-015 4.000000E+001
         vertex -3.670518E+001 9.835124E+000 4.000000E+001
         vertex -3.670518E+001 9.835124E+000 0.000000E+000
      endloop
   endfacet
   facet normal -9.914449E-001 1.305262E-001 0.000000E+000
      outer loop
         vertex -3.670518E+001 9.835124E+000 0.000000E+000
         vertex -3.800000E+001 4.653504E-015 0.000000E+000
         vertex -3.800000E+001 4.653504E-015 4.000000E+001
      endloop
   endfacet
   facet normal -9.914449E-001 -1.305262E-001 0.000000E+000
      outer loop
         vertex -3.670518E+001 -9.835124E+000 4.000000E+001
         vertex -3.800000E+001 4.653504E-015 4.000000E+001
         vertex -3.800000E+001 4.653504E-015 0.000000E+000
      endloop
   endfacet
   facet normal -9.914449E-001 -1.305262E-001 0.000000E+000
      outer loop
         vertex -3.800000E+001 4.653504E-015 0.000000E+000
         vertex -3.670518E+001 -9.835124E+000 0.000000E+000
         vertex -3.670518E+001 -9.835124E+000 4.000000E+001
      endloop
   endfacet
   facet normal -9.238795E-001 -3.826834E-001 0.000000E+000
      outer loop
         vertex -3.290897E+001 -1.900000E+001 4.000000E+001
         vertex -3.670518E+001 -9.835124E+000 4.000000E+001
         vertex -3.670518E+001 -9.835124E+000 0.000000E+000
      endloop
   endfacet
   facet normal -9.238795E-001 -3.826834E-001 0.000000E+000
      outer loop
         vertex -3.670518E+001 -9.835124E+000 0.000000E+000
         vertex -3.290897E+001 -1.900000E+001 0.000000E+000
         vertex -3.290897E+001 -1.900000E+001 4.000000E+001
      endloop
   endfacet
   facet normal -7.933533E-001 -6.087614E-001 0.000000E+000
      outer loop
         vertex -2.687006E+001 -2.687006E+001 4.000000E+001
         vertex -3.290897E+001 -1.900000E+001 4.000000E+001
         vertex -3.290897E+001 -1.900000E+001 0.000000E+000
      endloop
   endfacet
   facet normal -7.933533E-001 -6.087614E-001 0.000000E+000
      outer loop
         vertex -3.290897E+001 -1.900000E+001 0.000000E+000
         vertex -2.687006E+001 -2.687006E+001 0.000000E+000
         vertex -2.687006E+001 -2.687006E+001 4.000000E+001
      endloop
   endfacet
   facet normal -6.087614E-001 -7.933533E-001 0.000000E+000
      outer loop
         vertex -1.900000E+001 -3.290897E+001 4.000000E+001
         vertex -2.687006E+001 -2.687006E+001 4.000000E+001
         vertex -2.687006E+001 -2.687006E+001 0.000000E+000
      endloop
   endfacet
   facet normal -6.087614E-001 -7.933533E-001 0.000000E+000
      outer loop
         vertex -2.687006E+001 -2.687006E+001 0.000000E+000
         vertex -1.900000E+001 -3.290897E+001 0.000000E+000
         vertex -1.900000E+001 -3.290897E+001 4.000000E+001
      endloop
   endfacet
   facet normal -3.826834E-001 -9.238795E-001 0.000000E+000
      outer loop
         vertex -9.835124E+000 -3.670518E+001 4.000000E+001
         vertex -1.900000E+001 -3.290897E+001 4.000000E+001
         vertex -1.900000E+001 -3.290897E+001 0.000000E+000
      endloop
   endfacet
   facet normal -3.826834E-001 -9.238795E-001 0.000000E+000
      outer loop
         vertex -1.900000E+001 -3.290897E+001 0.000000E+000
         vertex -9.835124E+000 -3.670518E+001 0.000000E+000
         vertex -9.835124E+000 -3.670518E+001 4.000000E+001
      endloop
   endfacet
   facet normal -1.305262E-001 -9.914449E-001 0.000000E+000
      outer loop
         vertex -6.980256E-015 -3.800000E+001 4.000000E+001
         vertex -9.835124E+000 -3.670518E+001 4.000000E+001
         vertex -9.835124E+000 -3.670518E+001 0.000000E+000
      endloop
   endfacet
   facet normal -1.305262E-001 -9.914449E-001 0.000000E+000
      outer loop
         vertex -9.835124E+000 -3.670518E+001 0.000000E+000
         vertex -6.980256E-015 -3.800000E+001 0.000000E+000
         vertex -6.980256E-015 -3.800000E+001 4.000000E+001
      endloop
   endfacet
   facet normal 1.305262E-001 -9.914449E-001 0.000000E+000
      outer loop
         vertex 9.835124E+000 -3.670518E+001 4.000000E+001
         vertex -6.980256E-015 -3.800000E+001 4.000000E+001
         vertex -6.980256E-015 -3.800000E+001 0.000000E+000
      endloop
   endfacet
   facet normal 1.305262E-001 -9.914449E-001 0.000000E+000
      outer loop
         vertex -6.980256E-015 -3.800000E+001 0.000000E+000
         vertex 9.835124E+000 -3.670518E+001 0.000000E+000
         vertex 9.835124E+000 -3.670518E+001 4.000000E+001
      endloop
   endfacet
   facet normal 3.826834E-001 -9.238795E-001 0.000000E+000
      outer loop
         vertex 1.900000E+001 -3.290897E+001 4.000000E+001
         vertex 9.835124E+000 -3.670518E+001 4.000000E+001
         vertex 9.835124E+000 -3.670518E+001 0.000000E+000
      endloop
   endfacet
   facet normal 3.826834E-001 -9.238795E-001 0.000000E+000
      outer loop
         vertex 9.835124E+000 -3.670518E+001 0.000000E+000
         vertex 1.900000E+001 -3.290897E+001 0.000000E+000
         vertex 1.900000E+001 -3.290897E+001 4.000000E+001
      endloop
   endfacet
   facet normal 6.087614E-001 -7.933533E-001 0.000000E+000
      outer loop
         vertex 2.687006E+001 -2.687006E+001 4.000000E+001
         vertex 1.900000E+001 -3.290897E+001 4.000000E+001
         vertex 1.900000E+001 -3.290897E+001 0.000000E+000
      endloop
   endfacet
   facet normal 6.087614E-001 -7.933533E-001 0.000000E+000
      outer loop
         vertex 1.900000E+001 -3.290897E+001 0.000000E+000
         vertex 2.687006E+001 -2.687006E+001 0.000000E+000
         vertex 2.687006E+001 -2.687006E+001 4.000000E+001
      endloop
   endfacet
   facet normal 7.933533E-001 -6.087614E-001 0.000000E+000
      outer loop
         vertex 3.290897E+001 -1.900000E+001 4.000000E+001
         vertex 2.687006E+001 -2.687006E+001 4.000000E+001
         vertex 2.687006E+001 -2.687006E+001 0.000000E+000
      endloop
   endfacet
   facet normal 7.933533E-001 -6.087614E-001 0.000000E+000
      outer loop
         vertex 2.687006E+001 -2.687006E+001 0.000000E+000
         vertex 3.290897E+001 -1.900000E+001 0.000000E+000
         vertex 3.290897E+001 -1.900000E+001 4.000000E+001
      endloop
   endfacet
   facet normal 9.238795E-001 -3.826834E-001 0.000000E+000
      outer loop
         vertex 3.670518E+001 -9.835124E+000 4.000000E+001
         vertex 3.290897E+001 -1.900000E+001 4.000000E+001
         vertex 3.290897E+001 -1.900000E+001 0.000000E+000
      endloop
   endfacet
   facet normal 9.238795E-001 -3.826834E-001 0.000000E+000
      outer loop
         vertex 3.290897E+001 -1.900000E+001 0.000000E+000
         vertex 3.670518E+001 -9.835124E+000 0.000000E+000
         vertex 3.670518E+001 -9.835124E+000 4.000000E+001
      endloop
   endfacet
   facet normal 9.914449E-001 -1.305262E-001 0.000000E+000
      outer loop
         vertex 3.800000E+001 -9.307008E-015 4.000000E+001
         vertex 3.670518E+001 -9.835124E+000 4.000000E+001
         vertex 3.670518E+001 -9.835124E+000 0.000000E+000
      endloop
   endfacet
   facet normal 9.914449E-001 -1.305262E-001 0.000000E+000
      outer loop
         vertex 3.670518E+001 -9.835124E+000 0.000000E+000
         vertex 3.800000E+001 -9.307008E-015 0.000000E+000
         vertex 3.800000E+001 -9.307008E-015 4.000000E+001
      endloop
   endfacet
endsolid
