solid CYLINDER/39/80@ff00ff00
   facet normal 0.000000E+000 0.000000E+000 1.000000E+000
      outer loop
         vertex 3.900000E+001 0.000000E+000 8.000000E+001
         vertex 3.767111E+001 1.009394E+001 8.000000E+001
         vertex 0.000000E+000 0.000000E+000 8.000000E+001
      endloop
   endfacet
   facet normal 0.000000E+000 0.000000E+000 1.000000E+000
      outer loop
         vertex 3.767111E+001 1.009394E+001 8.000000E+001
         vertex 3.377499E+001 1.950000E+001 8.000000E+001
         vertex 0.000000E+000 0.000000E+000 8.000000E+001
      endloop
   endfacet
   facet normal 0.000000E+000 0.000000E+000 1.000000E+000
      outer loop
         vertex 3.377499E+001 1.950000E+001 8.000000E+001
         vertex 2.757716E+001 2.757716E+001 8.000000E+001
         vertex 0.000000E+000 0.000000E+000 8.000000E+001
      endloop
   endfacet
   facet normal 0.000000E+000 0.000000E+000 1.000000E+000
      outer loop
         vertex 2.757716E+001 2.757716E+001 8.000000E+001
         vertex 1.950000E+001 3.377499E+001 8.000000E+001
         vertex 0.000000E+000 0.000000E+000 8.000000E+001
      endloop
   endfacet
   facet normal 0.000000E+000 0.000000E+000 1.000000E+000
      outer loop
         vertex 1.950000E+001 3.377499E+001 8.000000E+001
         vertex 1.009394E+001 3.767111E+001 8.000000E+001
         vertex 0.000000E+000 0.000000E+000 8.000000E+001
      endloop
   endfacet
   facet normal 0.000000E+000 0.000000E+000 1.000000E+000
      outer loop
         vertex 1.009394E+001 3.767111E+001 8.000000E+001
         vertex 2.387982E-015 3.900000E+001 8.000000E+001
         vertex 0.000000E+000 0.000000E+000 8.000000E+001
      endloop
   endfacet
   facet normal 0.000000E+000 0.000000E+000 1.000000E+000
      outer loop
         vertex 2.387982E-015 3.900000E+001 8.000000E+001
         vertex -1.009394E+001 3.767111E+001 8.000000E+001
         vertex 0.000000E+000 0.000000E+000 8.000000E+001
      endloop
   endfacet
   facet normal 0.000000E+000 0.000000E+000 1.000000E+000
      outer loop
         vertex -1.009394E+001 3.767111E+001 8.000000E+001
         vertex -1.950000E+001 3.377499E+001 8.000000E+001
         vertex 0.000000E+000 0.000000E+000 8.000000E+001
      endloop
   endfacet
   facet normal 0.000000E+000 0.000000E+000 1.000000E+000
      outer loop
         vertex -1.950000E+001 3.377499E+001 8.000000E+001
         vertex -2.757716E+001 2.757716E+001 8.000000E+001
         vertex 0.000000E+000 0.000000E+000 8.000000E+001
      endloop
   endfacet
   facet normal 0.000000E+000 0.000000E+000 1.000000E+000
      outer loop
         vertex -2.757716E+001 2.757716E+001 8.000000E+001
         vertex -3.377499E+001 1.950000E+001 8.000000E+001
         vertex 0.000000E+000 0.000000E+000 8.000000E+001
      endloop
   endfacet
   facet normal 0.000000E+000 0.000000E+000 1.000000E+000
      outer loop
         vertex -3.377499E+001 1.950000E+001 8.000000E+001
         vertex -3.767111E+001 1.009394E+001 8.000000E+001
         vertex 0.000000E+000 0.000000E+000 8.000000E+001
      endloop
   endfacet
   facet normal 0.000000E+000 0.000000E+000 1.000000E+000
      outer loop
         vertex -3.767111E+001 1.009394E+001 8.000000E+001
         vertex -3.900000E+001 4.775965E-015 8.000000E+001
         vertex 0.000000E+000 0.000000E+000 8.000000E+001
      endloop
   endfacet
   facet normal 0.000000E+000 0.000000E+000 1.000000E+000
      outer loop
         vertex -3.900000E+001 4.775965E-015 8.000000E+001
         vertex -3.767111E+001 -1.009394E+001 8.000000E+001
         vertex 0.000000E+000 0.000000E+000 8.000000E+001
      endloop
   endfacet
   facet normal 0.000000E+000 0.000000E+000 1.000000E+000
      outer loop
         vertex -3.767111E+001 -1.009394E+001 8.000000E+001
         vertex -3.377499E+001 -1.950000E+001 8.000000E+001
         vertex 0.000000E+000 0.000000E+000 8.000000E+001
      endloop
   endfacet
   facet normal 0.000000E+000 0.000000E+000 1.000000E+000
      outer loop
         vertex -3.377499E+001 -1.950000E+001 8.000000E+001
         vertex -2.757716E+001 -2.757716E+001 8.000000E+001
         vertex 0.000000E+000 0.000000E+000 8.000000E+001
      endloop
   endfacet
   facet normal 0.000000E+000 0.000000E+000 1.000000E+000
      outer loop
         vertex -2.757716E+001 -2.757716E+001 8.000000E+001
         vertex -1.950000E+001 -3.377499E+001 8.000000E+001
         vertex 0.000000E+000 0.000000E+000 8.000000E+001
      endloop
   endfacet
   facet normal 0.000000E+000 0.000000E+000 1.000000E+000
      outer loop
         vertex -1.950000E+001 -3.377499E+001 8.000000E+001
         vertex -1.009394E+001 -3.767111E+001 8.000000E+001
         vertex 0.000000E+000 0.000000E+000 8.000000E+001
      endloop
   endfacet
   facet normal 0.000000E+000 0.000000E+000 1.000000E+000
      outer loop
         vertex -1.009394E+001 -3.767111E+001 8.000000E+001
         vertex -7.163947E-015 -3.900000E+001 8.000000E+001
         vertex 0.000000E+000 0.000000E+000 8.000000E+001
      endloop
   endfacet
   facet normal 0.000000E+000 0.000000E+000 1.000000E+000
      outer loop
         vertex -7.163947E-015 -3.900000E+001 8.000000E+001
         vertex 1.009394E+001 -3.767111E+001 8.000000E+001
         vertex 0.000000E+000 0.000000E+000 8.000000E+001
      endloop
   endfacet
   facet normal 0.000000E+000 0.000000E+000 1.000000E+000
      outer loop
         vertex 1.009394E+001 -3.767111E+001 8.000000E+001
         vertex 1.950000E+001 -3.377499E+001 8.000000E+001
         vertex 0.000000E+000 0.000000E+000 8.000000E+001
      endloop
   endfacet
   facet normal 0.000000E+000 0.000000E+000 1.000000E+000
      outer loop
         vertex 1.950000E+001 -3.377499E+001 8.000000E+001
         vertex 2.757716E+001 -2.757716E+001 8.000000E+001
         vertex 0.000000E+000 0.000000E+000 8.000000E+001
      endloop
   endfacet
   facet normal 0.000000E+000 0.000000E+000 1.000000E+000
      outer loop
         vertex 2.757716E+001 -2.757716E+001 8.000000E+001
         vertex 3.377499E+001 -1.950000E+001 8.000000E+001
         vertex 0.000000E+000 0.000000E+000 8.000000E+001
      endloop
   endfacet
   facet normal 0.000000E+000 0.000000E+000 1.000000E+000
      outer loop
         vertex 3.377499E+001 -1.950000E+001 8.000000E+001
         vertex 3.767111E+001 -1.009394E+001 8.000000E+001
         vertex 0.000000E+000 0.000000E+000 8.000000E+001
      endloop
   endfacet
   facet normal 0.000000E+000 0.000000E+000 1.000000E+000
      outer loop
         vertex 3.767111E+001 -1.009394E+001 8.000000E+001
         vertex 3.900000E+001 -9.551930E-015 8.000000E+001
         vertex 0.000000E+000 0.000000E+000 8.000000E+001
      endloop
   endfacet
   facet normal 0.000000E+000 0.000000E+000 -1.000000E+000
      outer loop
         vertex 3.767111E+001 1.009394E+001 0.000000E+000
         vertex 3.900000E+001 0.000000E+000 0.000000E+000
         vertex 0.000000E+000 0.000000E+000 0.000000E+000
      endloop
   endfacet
   facet normal 0.000000E+000 0.000000E+000 -1.000000E+000
      outer loop
         vertex 3.377499E+001 1.950000E+001 0.000000E+000
         vertex 3.767111E+001 1.009394E+001 0.000000E+000
         vertex 0.000000E+000 0.000000E+000 0.000000E+000
      endloop
   endfacet
   facet normal 0.000000E+000 0.000000E+000 -1.000000E+000
      outer loop
         vertex 2.757716E+001 2.757716E+001 0.000000E+000
         vertex 3.377499E+001 1.950000E+001 0.000000E+000
         vertex 0.000000E+000 0.000000E+000 0.000000E+000
      endloop
   endfacet
   facet normal 0.000000E+000 0.000000E+000 -1.000000E+000
      outer loop
         vertex 1.950000E+001 3.377499E+001 0.000000E+000
         vertex 2.757716E+001 2.757716E+001 0.000000E+000
         vertex 0.000000E+000 0.000000E+000 0.000000E+000
      endloop
   endfacet
   facet normal 0.000000E+000 0.000000E+000 -1.000000E+000
      outer loop
         vertex 1.009394E+001 3.767111E+001 0.000000E+000
         vertex 1.950000E+001 3.377499E+001 0.000000E+000
         vertex 0.000000E+000 0.000000E+000 0.000000E+000
      endloop
   endfacet
   facet normal 0.000000E+000 0.000000E+000 -1.000000E+000
      outer loop
         vertex 2.387982E-015 3.900000E+001 0.000000E+000
         vertex 1.009394E+001 3.767111E+001 0.000000E+000
         vertex 0.000000E+000 0.000000E+000 0.000000E+000
      endloop
   endfacet
   facet normal 0.000000E+000 0.000000E+000 -1.000000E+000
      outer loop
         vertex -1.009394E+001 3.767111E+001 0.000000E+000
         vertex 2.387982E-015 3.900000E+001 0.000000E+000
         vertex 0.000000E+000 0.000000E+000 0.000000E+000
      endloop
   endfacet
   facet normal 0.000000E+000 0.000000E+000 -1.000000E+000
      outer loop
         vertex -1.950000E+001 3.377499E+001 0.000000E+000
         vertex -1.009394E+001 3.767111E+001 0.000000E+000
         vertex 0.000000E+000 0.000000E+000 0.000000E+000
      endloop
   endfacet
   facet normal 0.000000E+000 0.000000E+000 -1.000000E+000
      outer loop
         vertex -2.757716E+001 2.757716E+001 0.000000E+000
         vertex -1.950000E+001 3.377499E+001 0.000000E+000
         vertex 0.000000E+000 0.000000E+000 0.000000E+000
      endloop
   endfacet
   facet normal 0.000000E+000 0.000000E+000 -1.000000E+000
      outer loop
         vertex -3.377499E+001 1.950000E+001 0.000000E+000
         vertex -2.757716E+001 2.757716E+001 0.000000E+000
         vertex 0.000000E+000 0.000000E+000 0.000000E+000
      endloop
   endfacet
   facet normal 0.000000E+000 0.000000E+000 -1.000000E+000
      outer loop
         vertex -3.767111E+001 1.009394E+001 0.000000E+000
         vertex -3.377499E+001 1.950000E+001 0.000000E+000
         vertex 0.000000E+000 0.000000E+000 0.000000E+000
      endloop
   endfacet
   facet normal 0.000000E+000 0.000000E+000 -1.000000E+000
      outer loop
         vertex -3.900000E+001 4.775965E-015 0.000000E+000
         vertex -3.767111E+001 1.009394E+001 0.000000E+000
         vertex 0.000000E+000 0.000000E+000 0.000000E+000
      endloop
   endfacet
   facet normal 0.000000E+000 0.000000E+000 -1.000000E+000
      outer loop
         vertex -3.767111E+001 -1.009394E+001 0.000000E+000
         vertex -3.900000E+001 4.775965E-015 0.000000E+000
         vertex 0.000000E+000 0.000000E+000 0.000000E+000
      endloop
   endfacet
   facet normal 0.000000E+000 0.000000E+000 -1.000000E+000
      outer loop
         vertex -3.377499E+001 -1.950000E+001 0.000000E+000
         vertex -3.767111E+001 -1.009394E+001 0.000000E+000
         vertex 0.000000E+000 0.000000E+000 0.000000E+000
      endloop
   endfacet
   facet normal 0.000000E+000 0.000000E+000 -1.000000E+000
      outer loop
         vertex -2.757716E+001 -2.757716E+001 0.000000E+000
         vertex -3.377499E+001 -1.950000E+001 0.000000E+000
         vertex 0.000000E+000 0.000000E+000 0.000000E+000
      endloop
   endfacet
   facet normal 0.000000E+000 0.000000E+000 -1.000000E+000
      outer loop
         vertex -1.950000E+001 -3.377499E+001 0.000000E+000
         vertex -2.757716E+001 -2.757716E+001 0.000000E+000
         vertex 0.000000E+000 0.000000E+000 0.000000E+000
      endloop
   endfacet
   facet normal 0.000000E+000 0.000000E+000 -1.000000E+000
      outer loop
         vertex -1.009394E+001 -3.767111E+001 0.000000E+000
         vertex -1.950000E+001 -3.377499E+001 0.000000E+000
         vertex 0.000000E+000 0.000000E+000 0.000000E+000
      endloop
   endfacet
   facet normal 0.000000E+000 0.000000E+000 -1.000000E+000
      outer loop
         vertex -7.163947E-015 -3.900000E+001 0.000000E+000
         vertex -1.009394E+001 -3.767111E+001 0.000000E+000
         vertex 0.000000E+000 0.000000E+000 0.000000E+000
      endloop
   endfacet
   facet normal 0.000000E+000 0.000000E+000 -1.000000E+000
      outer loop
         vertex 1.009394E+001 -3.767111E+001 0.000000E+000
         vertex -7.163947E-015 -3.900000E+001 0.000000E+000
         vertex 0.000000E+000 0.000000E+000 0.000000E+000
      endloop
   endfacet
   facet normal 0.000000E+000 0.000000E+000 -1.000000E+000
      outer loop
         vertex 1.950000E+001 -3.377499E+001 0.000000E+000
         vertex 1.009394E+001 -3.767111E+001 0.000000E+000
         vertex 0.000000E+000 0.000000E+000 0.000000E+000
      endloop
   endfacet
   facet normal 0.000000E+000 0.000000E+000 -1.000000E+000
      outer loop
         vertex 2.757716E+001 -2.757716E+001 0.000000E+000
         vertex 1.950000E+001 -3.377499E+001 0.000000E+000
         vertex 0.000000E+000 0.000000E+000 0.000000E+000
      endloop
   endfacet
   facet normal 0.000000E+000 0.000000E+000 -1.000000E+000
      outer loop
         vertex 3.377499E+001 -1.950000E+001 0.000000E+000
         vertex 2.757716E+001 -2.757716E+001 0.000000E+000
         vertex 0.000000E+000 0.000000E+000 0.000000E+000
      endloop
   endfacet
   facet normal 0.000000E+000 0.000000E+000 -1.000000E+000
      outer loop
         vertex 3.767111E+001 -1.009394E+001 0.000000E+000
         vertex 3.377499E+001 -1.950000E+001 0.000000E+000
         vertex 0.000000E+000 0.000000E+000 0.000000E+000
      endloop
   endfacet
   facet normal 0.000000E+000 0.000000E+000 -1.000000E+000
      outer loop
         vertex 3.900000E+001 -9.551930E-015 0.000000E+000
         vertex 3.767111E+001 -1.009394E+001 0.000000E+000
         vertex 0.000000E+000 0.000000E+000 0.000000E+000
      endloop
   endfacet
   facet normal 9.914449E-001 1.305262E-001 0.000000E+000
      outer loop
         vertex 3.767111E+001 1.009394E+001 8.000000E+001
         vertex 3.900000E+001 0.000000E+000 8.000000E+001
         vertex 3.900000E+001 0.000000E+000 0.000000E+000
      endloop
   endfacet
   facet normal 9.914449E-001 1.305262E-001 0.000000E+000
      outer loop
         vertex 3.900000E+001 0.000000E+000 0.000000E+000
         vertex 3.767111E+001 1.009394E+001 0.000000E+000
         vertex 3.767111E+001 1.009394E+001 8.000000E+001
      endloop
   endfacet
   facet normal 9.238795E-001 3.826834E-001 0.000000E+000
      outer loop
         vertex 3.377499E+001 1.950000E+001 8.000000E+001
         vertex 3.767111E+001 1.009394E+001 8.000000E+001
         vertex 3.767111E+001 1.009394E+001 0.000000E+000
      endloop
   endfacet
   facet normal 9.238795E-001 3.826834E-001 0.000000E+000
      outer loop
         vertex 3.767111E+001 1.009394E+001 0.000000E+000
         vertex 3.377499E+001 1.950000E+001 0.000000E+000
         vertex 3.377499E+001 1.950000E+001 8.000000E+001
      endloop
   endfacet
   facet normal 7.933533E-001 6.087614E-001 0.000000E+000
      outer loop
         vertex 2.757716E+001 2.757716E+001 8.000000E+001
         vertex 3.377499E+001 1.950000E+001 8.000000E+001
         vertex 3.377499E+001 1.950000E+001 0.000000E+000
      endloop
   endfacet
   facet normal 7.933533E-001 6.087614E-001 0.000000E+000
      outer loop
         vertex 3.377499E+001 1.950000E+001 0.000000E+000
         vertex 2.757716E+001 2.757716E+001 0.000000E+000
         vertex 2.757716E+001 2.757716E+001 8.000000E+001
      endloop
   endfacet
   facet normal 6.087614E-001 7.933533E-001 0.000000E+000
      outer loop
         vertex 1.950000E+001 3.377499E+001 8.000000E+001
         vertex 2.757716E+001 2.757716E+001 8.000000E+001
         vertex 2.757716E+001 2.757716E+001 0.000000E+000
      endloop
   endfacet
   facet normal 6.087614E-001 7.933533E-001 0.000000E+000
      outer loop
         vertex 2.757716E+001 2.757716E+001 0.000000E+000
         vertex 1.950000E+001 3.377499E+001 0.000000E+000
         vertex 1.950000E+001 3.377499E+001 8.000000E+001
      endloop
   endfacet
   facet normal 3.826834E-001 9.238795E-001 0.000000E+000
      outer loop
         vertex 1.009394E+001 3.767111E+001 8.000000E+001
         vertex 1.950000E+001 3.377499E+001 8.000000E+001
         vertex 1.950000E+001 3.377499E+001 0.000000E+000
      endloop
   endfacet
   facet normal 3.826834E-001 9.238795E-001 0.000000E+000
      outer loop
         vertex 1.950000E+001 3.377499E+001 0.000000E+000
         vertex 1.009394E+001 3.767111E+001 0.000000E+000
         vertex 1.009394E+001 3.767111E+001 8.000000E+001
      endloop
   endfacet
   facet normal 1.305262E-001 9.914449E-001 0.000000E+000
      outer loop
         vertex 2.387982E-015 3.900000E+001 8.000000E+001
         vertex 1.009394E+001 3.767111E+001 8.000000E+001
         vertex 1.009394E+001 3.767111E+001 0.000000E+000
      endloop
   endfacet
   facet normal 1.305262E-001 9.914449E-001 0.000000E+000
      outer loop
         vertex 1.009394E+001 3.767111E+001 0.000000E+000
         vertex 2.387982E-015 3.900000E+001 0.000000E+000
         vertex 2.387982E-015 3.900000E+001 8.000000E+001
      endloop
   endfacet
   facet normal -1.305262E-001 9.914449E-001 0.000000E+000
      outer loop
         vertex -1.009394E+001 3.767111E+001 8.000000E+001
         vertex 2.387982E-015 3.900000E+001 8.000000E+001
         vertex 2.387982E-015 3.900000E+001 0.000000E+000
      endloop
   endfacet
   facet normal -1.305262E-001 9.914449E-001 0.000000E+000
      outer loop
         vertex 2.387982E-015 3.900000E+001 0.000000E+000
         vertex -1.009394E+001 3.767111E+001 0.000000E+000
         vertex -1.009394E+001 3.767111E+001 8.000000E+001
      endloop
   endfacet
   facet normal -3.826834E-001 9.238795E-001 0.000000E+000
      outer loop
         vertex -1.950000E+001 3.377499E+001 8.000000E+001
         vertex -1.009394E+001 3.767111E+001 8.000000E+001
         vertex -1.009394E+001 3.767111E+001 0.000000E+000
      endloop
   endfacet
   facet normal -3.826834E-001 9.238795E-001 0.000000E+000
      outer loop
         vertex -1.009394E+001 3.767111E+001 0.000000E+000
         vertex -1.950000E+001 3.377499E+001 0.000000E+000
         vertex -1.950000E+001 3.377499E+001 8.000000E+001
      endloop
   endfacet
   facet normal -6.087614E-001 7.933533E-001 0.000000E+000
      outer loop
         vertex -2.757716E+001 2.757716E+001 8.000000E+001
         vertex -1.950000E+001 3.377499E+001 8.000000E+001
         vertex -1.950000E+001 3.377499E+001 0.000000E+000
      endloop
   endfacet
   facet normal -6.087614E-001 7.933533E-001 0.000000E+000
      outer loop
         vertex -1.950000E+001 3.377499E+001 0.000000E+000
         vertex -2.757716E+001 2.757716E+001 0.000000E+000
         vertex -2.757716E+001 2.757716E+001 8.000000E+001
      endloop
   endfacet
   facet normal -7.933533E-001 6.087614E-001 0.000000E+000
      outer loop
         vertex -3.377499E+001 1.950000E+001 8.000000E+001
         vertex -2.757716E+001 2.757716E+001 8.000000E+001
         vertex -2.757716E+001 2.757716E+001 0.000000E+000
      endloop
   endfacet
   facet normal -7.933533E-001 6.087614E-001 0.000000E+000
      outer loop
         vertex -2.757716E+001 2.757716E+001 0.000000E+000
         vertex -3.377499E+001 1.950000E+001 0.000000E+000
         vertex -3.377499E+001 1.950000E+001 8.000000E+001
      endloop
   endfacet
   facet normal -9.238795E-001 3.826834E-001 0.000000E+000
      outer loop
         vertex -3.767111E+001 1.009394E+001 8.000000E+001
         vertex -3.377499E+001 1.950000E+001 8.000000E+001
         vertex -3.377499E+001 1.950000E+001 0.000000E+000
      endloop
   endfacet
   facet normal -9.238795E-001 3.826834E-001 0.000000E+000
      outer loop
         vertex -3.377499E+001 1.950000E+001 0.000000E+000
         vertex -3.767111E+001 1.009394E+001 0.000000E+000
         vertex -3.767111E+001 1.009394E+001 8.000000E+001
      endloop
   endfacet
   facet normal -9.914449E-001 1.305262E-001 0.000000E+000
      outer loop
         vertex -3.900000E+001 4.775965E-015 8.000000E+001
         vertex -3.767111E+001 1.009394E+001 8.000000E+001
         vertex -3.767111E+001 1.009394E+001 0.000000E+000
      endloop
   endfacet
   facet normal -9.914449E-001 1.305262E-001 0.000000E+000
      outer loop
         vertex -3.767111E+001 1.009394E+001 0.000000E+000
         vertex -3.900000E+001 4.775965E-015 0.000000E+000
         vertex -3.900000E+001 4.775965E-015 8.000000E+001
      endloop
   endfacet
   facet normal -9.914449E-001 -1.305262E-001 0.000000E+000
      outer loop
         vertex -3.767111E+001 -1.009394E+001 8.000000E+001
         vertex -3.900000E+001 4.775965E-015 8.000000E+001
         vertex -3.900000E+001 4.775965E-015 0.000000E+000
      endloop
   endfacet
   facet normal -9.914449E-001 -1.305262E-001 0.000000E+000
      outer loop
         vertex -3.900000E+001 4.775965E-015 0.000000E+000
         vertex -3.767111E+001 -1.009394E+001 0.000000E+000
         vertex -3.767111E+001 -1.009394E+001 8.000000E+001
      endloop
   endfacet
   facet normal -9.238795E-001 -3.826834E-001 0.000000E+000
      outer loop
         vertex -3.377499E+001 -1.950000E+001 8.000000E+001
         vertex -3.767111E+001 -1.009394E+001 8.000000E+001
         vertex -3.767111E+001 -1.009394E+001 0.000000E+000
      endloop
   endfacet
   facet normal -9.238795E-001 -3.826834E-001 0.000000E+000
      outer loop
         vertex -3.767111E+001 -1.009394E+001 0.000000E+000
         vertex -3.377499E+001 -1.950000E+001 0.000000E+000
         vertex -3.377499E+001 -1.950000E+001 8.000000E+001
      endloop
   endfacet
   facet normal -7.933533E-001 -6.087614E-001 0.000000E+000
      outer loop
         vertex -2.757716E+001 -2.757716E+001 8.000000E+001
         vertex -3.377499E+001 -1.950000E+001 8.000000E+001
         vertex -3.377499E+001 -1.950000E+001 0.000000E+000
      endloop
   endfacet
   facet normal -7.933533E-001 -6.087614E-001 0.000000E+000
      outer loop
         vertex -3.377499E+001 -1.950000E+001 0.000000E+000
         vertex -2.757716E+001 -2.757716E+001 0.000000E+000
         vertex -2.757716E+001 -2.757716E+001 8.000000E+001
      endloop
   endfacet
   facet normal -6.087614E-001 -7.933533E-001 0.000000E+000
      outer loop
         vertex -1.950000E+001 -3.377499E+001 8.000000E+001
         vertex -2.757716E+001 -2.757716E+001 8.000000E+001
         vertex -2.757716E+001 -2.757716E+001 0.000000E+000
      endloop
   endfacet
   facet normal -6.087614E-001 -7.933533E-001 0.000000E+000
      outer loop
         vertex -2.757716E+001 -2.757716E+001 0.000000E+000
         vertex -1.950000E+001 -3.377499E+001 0.000000E+000
         vertex -1.950000E+001 -3.377499E+001 8.000000E+001
      endloop
   endfacet
   facet normal -3.826834E-001 -9.238795E-001 0.000000E+000
      outer loop
         vertex -1.009394E+001 -3.767111E+001 8.000000E+001
         vertex -1.950000E+001 -3.377499E+001 8.000000E+001
         vertex -1.950000E+001 -3.377499E+001 0.000000E+000
      endloop
   endfacet
   facet normal -3.826834E-001 -9.238795E-001 0.000000E+000
      outer loop
         vertex -1.950000E+001 -3.377499E+001 0.000000E+000
         vertex -1.009394E+001 -3.767111E+001 0.000000E+000
         vertex -1.009394E+001 -3.767111E+001 8.000000E+001
      endloop
   endfacet
   facet normal -1.305262E-001 -9.914449E-001 0.000000E+000
      outer loop
         vertex -7.163947E-015 -3.900000E+001 8.000000E+001
         vertex -1.009394E+001 -3.767111E+001 8.000000E+001
         vertex -1.009394E+001 -3.767111E+001 0.000000E+000
      endloop
   endfacet
   facet normal -1.305262E-001 -9.914449E-001 0.000000E+000
      outer loop
         vertex -1.009394E+001 -3.767111E+001 0.000000E+000
         vertex -7.163947E-015 -3.900000E+001 0.000000E+000
         vertex -7.163947E-015 -3.900000E+001 8.000000E+001
      endloop
   endfacet
   facet normal 1.305262E-001 -9.914449E-001 0.000000E+000
      outer loop
         vertex 1.009394E+001 -3.767111E+001 8.000000E+001
         vertex -7.163947E-015 -3.900000E+001 8.000000E+001
         vertex -7.163947E-015 -3.900000E+001 0.000000E+000
      endloop
   endfacet
   facet normal 1.305262E-001 -9.914449E-001 0.000000E+000
      outer loop
         vertex -7.163947E-015 -3.900000E+001 0.000000E+000
         vertex 1.009394E+001 -3.767111E+001 0.000000E+000
         vertex 1.009394E+001 -3.767111E+001 8.000000E+001
      endloop
   endfacet
   facet normal 3.826834E-001 -9.238795E-001 0.000000E+000
      outer loop
         vertex 1.950000E+001 -3.377499E+001 8.000000E+001
         vertex 1.009394E+001 -3.767111E+001 8.000000E+001
         vertex 1.009394E+001 -3.767111E+001 0.000000E+000
      endloop
   endfacet
   facet normal 3.826834E-001 -9.238795E-001 0.000000E+000
      outer loop
         vertex 1.009394E+001 -3.767111E+001 0.000000E+000
         vertex 1.950000E+001 -3.377499E+001 0.000000E+000
         vertex 1.950000E+001 -3.377499E+001 8.000000E+001
      endloop
   endfacet
   facet normal 6.087614E-001 -7.933533E-001 0.000000E+000
      outer loop
         vertex 2.757716E+001 -2.757716E+001 8.000000E+001
         vertex 1.950000E+001 -3.377499E+001 8.000000E+001
         vertex 1.950000E+001 -3.377499E+001 0.000000E+000
      endloop
   endfacet
   facet normal 6.087614E-001 -7.933533E-001 0.000000E+000
      outer loop
         vertex 1.950000E+001 -3.377499E+001 0.000000E+000
         vertex 2.757716E+001 -2.757716E+001 0.000000E+000
         vertex 2.757716E+001 -2.757716E+001 8.000000E+001
      endloop
   endfacet
   facet normal 7.933533E-001 -6.087614E-001 0.000000E+000
      outer loop
         vertex 3.377499E+001 -1.950000E+001 8.000000E+001
         vertex 2.757716E+001 -2.757716E+001 8.000000E+001
         vertex 2.757716E+001 -2.757716E+001 0.000000E+000
      endloop
   endfacet
   facet normal 7.933533E-001 -6.087614E-001 0.000000E+000
      outer loop
         vertex 2.757716E+001 -2.757716E+001 0.000000E+000
         vertex 3.377499E+001 -1.950000E+001 0.000000E+000
         vertex 3.377499E+001 -1.950000E+001 8.000000E+001
      endloop
   endfacet
   facet normal 9.238795E-001 -3.826834E-001 0.000000E+000
      outer loop
         vertex 3.767111E+001 -1.009394E+001 8.000000E+001
         vertex 3.377499E+001 -1.950000E+001 8.000000E+001
         vertex 3.377499E+001 -1.950000E+001 0.000000E+000
      endloop
   endfacet
   facet normal 9.238795E-001 -3.826834E-001 0.000000E+000
      outer loop
         vertex 3.377499E+001 -1.950000E+001 0.000000E+000
         vertex 3.767111E+001 -1.009394E+001 0.000000E+000
         vertex 3.767111E+001 -1.009394E+001 8.000000E+001
      endloop
   endfacet
   facet normal 9.914449E-001 -1.305262E-001 0.000000E+000
      outer loop
         vertex 3.900000E+001 -9.551930E-015 8.000000E+001
         vertex 3.767111E+001 -1.009394E+001 8.000000E+001
         vertex 3.767111E+001 -1.009394E+001 0.000000E+000
      endloop
   endfacet
   facet normal 9.914449E-001 -1.305262E-001 0.000000E+000
      outer loop
         vertex 3.767111E+001 -1.009394E+001 0.000000E+000
         vertex 3.900000E+001 -9.551930E-015 0.000000E+000
         vertex 3.900000E+001 -9.551930E-015 8.000000E+001
      endloop
   endfacet
endsolid
